# xmcd
#
# Track frame offsets:
#	150
#	25825
#	49459
#	81007
#	110500
#
# Disc length: 1807 seconds
#
# Revision: 1
# Processed by: cddbd v1.5.1PL0 Copyright (c) Steve Scherf et al.
# Submitted via: CDex 1.50Beta5
#
DISCID=39070d05
DTITLE=Tao - Festa
DYEAR=1900
DGENRE=
TTITLE0=Festa
TTITLE1=静かなる光
TTITLE2=めぐり
TTITLE3=坊がつる賛歌
TTITLE4=Do大祭
EXTD=
EXTT0=
EXTT1=
EXTT2=
EXTT3=
EXTT4=
PLAYORDER=
